<svg width="34" height="34" viewBox="0 0 34 34" fill="none" xmlns="http://www.w3.org/2000/svg">
<path d="M25.5 28.3335C25.5 26.0792 24.6045 23.9171 23.0104 22.3231C21.4163 20.729 19.2543 19.8335 17 19.8335C14.7457 19.8335 12.5837 20.729 10.9896 22.3231C9.39553 23.9171 8.5 26.0792 8.5 28.3335" stroke="#15256D" stroke-width="2" stroke-linecap="round" stroke-linejoin="round"/>
<path d="M17.0002 19.8333C20.1298 19.8333 22.6668 17.2963 22.6668 14.1667C22.6668 11.0371 20.1298 8.5 17.0002 8.5C13.8705 8.5 11.3335 11.0371 11.3335 14.1667C11.3335 17.2963 13.8705 19.8333 17.0002 19.8333Z" stroke="#15256D" stroke-width="2" stroke-linecap="round" stroke-linejoin="round"/>
<path d="M17.0002 31.1668C24.8242 31.1668 31.1668 24.8242 31.1668 17.0002C31.1668 9.17613 24.8242 2.8335 17.0002 2.8335C9.17613 2.8335 2.8335 9.17613 2.8335 17.0002C2.8335 24.8242 9.17613 31.1668 17.0002 31.1668Z" stroke="#15256D" stroke-width="2" stroke-linecap="round" stroke-linejoin="round"/>
</svg>
