<svg width="34" height="34" viewBox="0 0 34 34" fill="none" xmlns="http://www.w3.org/2000/svg">
<path d="M4.25 9.91667V7.08333C4.25 6.33189 4.54851 5.61122 5.07986 5.07986C5.61122 4.54851 6.33189 4.25 7.08333 4.25H9.91667" stroke="#15256D" stroke-width="2" stroke-linecap="round" stroke-linejoin="round"/>
<path d="M24.0835 4.25H26.9168C27.6683 4.25 28.3889 4.54851 28.9203 5.07986C29.4517 5.61122 29.7502 6.33189 29.7502 7.08333V9.91667" stroke="#15256D" stroke-width="2" stroke-linecap="round" stroke-linejoin="round"/>
<path d="M29.7502 24.0835V26.9168C29.7502 27.6683 29.4517 28.3889 28.9203 28.9203C28.3889 29.4517 27.6683 29.7502 26.9168 29.7502H24.0835" stroke="#15256D" stroke-width="2" stroke-linecap="round" stroke-linejoin="round"/>
<path d="M9.91667 29.7502H7.08333C6.33189 29.7502 5.61122 29.4517 5.07986 28.9203C4.54851 28.3889 4.25 27.6683 4.25 26.9168V24.0835" stroke="#15256D" stroke-width="2" stroke-linecap="round" stroke-linejoin="round"/>
<path d="M9.9165 17H24.0832" stroke="#15256D" stroke-width="2" stroke-linecap="round" stroke-linejoin="round"/>
</svg>
